<svg width="24" height="24" viewBox="0 0 24 24" fill="none" xmlns="http://www.w3.org/2000/svg">
<path d="M16.343 24H5C3.67449 23.9981 2.40383 23.4708 1.46655 22.5335C0.529272 21.5962 0.00185183 20.3255 0 19V5C0.00185183 3.67449 0.529272 2.40379 1.46655 1.46651C2.40383 0.52923 3.67449 0.00185183 5 0H14.042C14.3072 0 14.5615 0.105356 14.749 0.292892C14.9366 0.480429 15.042 0.734784 15.042 1C15.042 1.26522 14.9366 1.51957 14.749 1.70711C14.5615 1.89464 14.3072 2 14.042 2H5C4.20435 2 3.44127 2.31607 2.87866 2.87868C2.31605 3.44129 2 4.20435 2 5V19C2 19.7956 2.31605 20.5587 2.87866 21.1213C3.44127 21.6839 4.20435 22 5 22H15V18C15 17.2044 15.3161 16.4413 15.8787 15.8787C16.4413 15.3161 17.2044 15 18 15H22V9.979C22 9.71378 22.1054 9.45943 22.293 9.27189C22.4805 9.08436 22.7348 8.979 23 8.979C23.2652 8.979 23.5195 9.08436 23.707 9.27189C23.8946 9.45943 24 9.71378 24 9.979V16.343C24.0013 16.9998 23.8725 17.6503 23.6211 18.257C23.3696 18.8638 23.0004 19.4147 22.5349 19.878L19.8789 22.536C19.417 23 18.868 23.3682 18.2634 23.6194C17.6588 23.8707 17.0107 24 16.356 24H16.343ZM17 18V21.922C17.5545 21.8002 18.0629 21.5227 18.4651 21.122L21.125 18.464C21.5242 18.0611 21.8016 17.5536 21.925 17H18C17.7348 17 17.4805 17.1054 17.293 17.2929C17.1054 17.4804 17 17.7348 17 18ZM7.34302 19H6C5.73478 19 5.4805 18.8946 5.29297 18.7071C5.10543 18.5196 5 18.2652 5 18V16.657C4.99801 16.0003 5.12632 15.3497 5.37744 14.743C5.62857 14.1362 5.99741 13.5852 6.46289 13.122L18.655 0.93C19.2501 0.362967 20.0406 0.0466671 20.8625 0.0466671C21.6845 0.0466671 22.475 0.362967 23.0701 0.93C23.6542 1.51596 23.9822 2.3096 23.9822 3.137C23.9822 3.96439 23.6542 4.75804 23.0701 5.344L10.8779 17.535C10.4165 17.9994 9.86789 18.368 9.26343 18.6194C8.65896 18.8708 8.01063 19.0002 7.35596 19H7.34302ZM20.0701 2.344L7.87793 14.536C7.31768 15.1 7.0023 15.862 7 16.657V17H7.34302C8.13802 16.9979 8.90024 16.6824 9.46411 16.122L21.655 3.931C21.865 3.72031 21.9829 3.43497 21.9829 3.1375C21.9829 2.84003 21.865 2.55469 21.655 2.344C21.4414 2.13996 21.1574 2.02609 20.8621 2.02609C20.5667 2.02609 20.2827 2.13996 20.0691 2.344H20.0701Z" fill="black"/>
</svg>
